# xmcd
# 
# Track frame offsets:
#     150
#     17107
#     36976
#     55836
#     66405
#     85458
#     102121
# 
# Disc length: 1541
# 
# Revision: 0
# Processed by: cddbd v1.5.2PL0 Copyright (c) Steve Scherf et al.
# Submitted via: fre:ac v1.0.17
# 
DISCID=5b060307
DTITLE=Joshua Creek - I Still Believe
DYEAR=2014
DGENRE=Country
TTITLE0=I Still Believe
TTITLE1=O Holy Night
TTITLE2=Everything I Need
TTITLE3=Santa's At The Mall
TTITLE4=Little Drummer Boy
TTITLE5=He Came Here For You
TTITLE6=Snowbound
EXTD=
EXTT0=
EXTT1=
EXTT2=
EXTT3=
EXTT4=
EXTT5=
EXTT6=
PLAYORDER=
